<svg width="270" height="270" viewBox="0 0 270 270" fill="none" xmlns="http://www.w3.org/2000/svg">
<path d="M132.5 17.2168C134.047 16.3237 135.953 16.3237 137.5 17.2168L235.753 73.9434C237.3 74.8365 238.253 76.4871 238.253 78.2734V191.727C238.253 193.513 237.3 195.163 235.753 196.057L137.5 252.783C135.953 253.676 134.047 253.676 132.5 252.783L34.2471 196.057C32.7001 195.163 31.7471 193.513 31.7471 191.727V78.2734C31.7471 76.4871 32.7001 74.8365 34.2471 73.9434L132.5 17.2168Z" fill="white" stroke="#111111" stroke-width="10" stroke-linejoin="round"/>
<path d="M131.75 50.918C133.761 49.7569 136.239 49.7569 138.25 50.918L206.192 90.1445C208.203 91.3057 209.442 93.4513 209.442 95.7734V174.227C209.442 176.549 208.203 178.694 206.192 179.855L138.25 219.082C136.239 220.243 133.761 220.243 131.75 219.082L63.8076 179.855C61.7966 178.694 60.5576 176.549 60.5576 174.227V95.7734C60.5576 93.4513 61.7966 91.3057 63.8076 90.1445L131.75 50.918Z" fill="white" stroke="#111111" stroke-width="7" stroke-linejoin="round"/>
<path d="M135.26 53.6155L101.777 73.606C100.496 74.3708 100.473 76.2184 101.735 77.0146L117.047 86.6768C117.693 87.0841 118.514 87.0886 119.163 86.6883L136.596 75.95C137.263 75.5394 138.107 75.5555 138.758 75.9912L159.388 89.8084C160.59 90.6133 160.567 92.3884 159.344 93.1609L133.581 109.437C132.953 109.834 132.157 109.85 131.513 109.478L86.897 83.729C86.2908 83.3792 85.5459 83.3717 84.9328 83.7092L65.0356 94.6617C64.3968 95.0133 64 95.6846 64 96.4138V174.378C64 175.085 64.3731 175.739 64.9814 176.099L134.336 217.145C134.966 217.518 135.75 217.517 136.378 217.142L205.274 176.1C205.879 175.739 206.25 175.087 206.25 174.382V113.114C206.25 111.568 204.57 110.606 203.236 111.39L186.715 121.105C186.104 121.464 185.729 122.12 185.729 122.829V161.881C185.729 162.57 185.374 163.21 184.791 163.576L136.396 193.895C135.759 194.294 134.952 194.303 134.307 193.916L83.6283 163.57C83.025 163.209 82.6557 162.558 82.6557 161.854V107.578C82.6557 106.024 84.3501 105.064 85.6832 105.862L134.356 135.007C134.975 135.378 135.746 135.386 136.373 135.029L203.287 96.9194C204.614 96.1634 204.638 94.2587 203.33 93.4693L137.319 53.6205C136.686 53.2386 135.895 53.2367 135.26 53.6155Z" fill="#D10D02" stroke="#111111" stroke-width="7" stroke-linejoin="round"/>
<path d="M120.6 91.8L97.2 76.95L91.35 80.55L132.75 104.4L152.55 91.8L137.25 81.45L120.6 91.8Z" fill="#111111" stroke="#111111" stroke-width="12" stroke-linejoin="round"/>
<path d="M134.442 139.793L92.1314 114.325C90.7984 113.522 89.1 114.482 89.1 116.038V157.72C89.1 158.421 89.4675 159.071 90.0685 159.433L134.392 186.113C135.041 186.504 135.854 186.495 136.493 186.09L178.619 159.439C179.199 159.072 179.55 158.434 179.55 157.749V121.732C179.55 121.03 179.919 120.379 180.521 120.017L203.329 106.333C203.931 105.971 204.3 105.32 204.3 104.618V104.258C204.3 102.719 202.636 101.757 201.303 102.524L136.47 139.813C135.841 140.175 135.064 140.168 134.442 139.793Z" fill="#111111" stroke="#111111" stroke-width="15" stroke-linejoin="round"/>
<path d="M125.1 160.759V141.079C125.1 140.378 124.733 139.729 124.133 139.367L102.033 126.03C100.7 125.226 99 126.186 99 127.743V147.804C99 148.514 99.3762 149.171 99.9886 149.53L122.089 162.485C123.422 163.266 125.1 162.305 125.1 160.759Z" fill="white" stroke="#111111" stroke-linejoin="round"/>
<path d="M146.7 160.759V141.079C146.7 140.378 147.067 139.729 147.667 139.367L169.767 126.03C171.1 125.226 172.8 126.186 172.8 127.743V147.804C172.8 148.514 172.424 149.171 171.811 149.53L149.711 162.485C148.378 163.266 146.7 162.305 146.7 160.759Z" fill="white" stroke="#111111" stroke-linejoin="round"/>
</svg>
